<svg width="577.625px" height="188.96000366210936px" xmlns="http://www.w3.org/2000/svg" viewBox="-38.8125 -19.48000183105468 577.625 188.96000366210936" style="background: none; --darkreader-inline-bgimage:none; --darkreader-inline-bgcolor: initial;" data-darkreader-inline-bgimage="" data-darkreader-inline-bgcolor="" preserveAspectRatio="xMidYMid"><defs><linearGradient id="editing-gradient-gradient" x1="0.06269014643030213" x2="0.9373098535696979" y1="0.2575951898768315" y2="0.7424048101231685" gradientUnits="objectBoundingBox"><stop offset="0" stop-color="#ff00ff" data-darkreader-inline-stopcolor="" style="--darkreader-inline-stopcolor:#cc00cc;"></stop><stop offset="1" stop-color="#00ffff" data-darkreader-inline-stopcolor="" style="--darkreader-inline-stopcolor:#00cccc;"></stop></linearGradient></defs><g><g transform="translate(44.98503589630127, 120.8700008392334)"><path d="M28.48-70.50L43.71-70.50L43.71-5.64L51.42-5.64L51.42-1.69L51.42-1.69Q47.94 0.47 43.52 0.47L43.52 0.47L43.52 0.47Q39.10 0.47 37.46-0.80L37.46-0.80L37.46-0.80Q35.81-2.07 35.72-5.17L35.72-5.17L35.72-5.17Q30.17 0.94 21.53 0.94L21.53 0.94L21.53 0.94Q12.88 0.94 8.08-5.88L8.08-5.88L8.08-5.88Q3.29-12.69 3.29-23.36L3.29-23.36L3.29-23.36Q3.29-34.03 8.93-40.98L8.93-40.98L8.93-40.98Q14.57-47.94 25.00-47.94L25.00-47.94L25.00-47.94Q30.08-47.94 35.72-45.97L35.72-45.97L35.72-64.39L28.48-64.39L28.48-70.50ZM11.28-23.83L11.28-23.83L11.28-23.83Q11.28-16.07 14.38-11.09L14.38-11.09L14.38-11.09Q17.48-6.11 23.08-6.11L23.08-6.11L23.08-6.11Q28.67-6.11 32.20-10.53L32.20-10.53L32.20-10.53Q35.72-14.95 35.72-21.15L35.72-21.15L35.72-37.88L35.72-37.88Q30.74-40.89 24.96-40.89L24.96-40.89L24.96-40.89Q19.18-40.89 15.23-36.24L15.23-36.24L15.23-36.24Q11.28-31.58 11.28-23.83ZM63.45-40.89L56.21-40.89L56.21-47L71.44-47L71.44-6.11L79.62-6.11L79.62 0L56.12 0L56.12-6.11L63.45-6.11L63.45-40.89ZM67.21-55.37L67.21-55.37L67.21-55.37Q65.14-55.37 63.83-56.87L63.83-56.87L63.83-56.87Q62.51-58.37 62.51-60.49L62.51-60.49L62.51-60.49Q62.51-62.60 63.97-64.20L63.97-64.20L63.97-64.20Q65.42-65.80 67.49-65.80L67.49-65.80L67.49-65.80Q69.56-65.80 70.88-64.30L70.88-64.30L70.88-64.30Q72.19-62.79 72.19-60.68L72.19-60.68L72.19-60.68Q72.19-58.56 70.73-56.96L70.73-56.96L70.73-56.96Q69.28-55.37 67.21-55.37ZM118.72-40.89L112.71-40.89L112.71-47L132.63-47L132.63-40.89L126.81-40.89L111.95 0L103.68 0L88.74-40.89L82.91-40.89L82.91-47L102.84-47L102.84-40.89L96.91-40.89L107.82-8.93L118.72-40.89ZM140.34-40.89L134.51-40.89L134.51-47L152.28-47L152.28-40.89L148.90-40.89L159.42-9.02L169.29-40.89L164.97-40.89L164.97-47L181.89-47L181.89-40.89L177.47-40.89L163.84 0L163.84 0Q160.27 10.43 155.95 15.84L155.95 15.84L155.95 15.84Q151.62 21.24 143.91 21.24L143.91 21.24L143.91 21.24Q139.50 21.24 134.51 19.55L134.51 19.55L136.77 12.97L136.77 12.97Q140.62 14.10 143.35 14.10L143.35 14.10L143.35 14.10Q151.43 14.10 155.76 1.32L155.76 1.32L140.34-40.89ZM227.29-26.70L227.29-26.70L227.29-21.71L194.11-21.71L194.11-21.71Q194.58-14.85 198.15-10.48L198.15-10.48L198.15-10.48Q201.72-6.11 207.74-6.11L207.74-6.11L207.74-6.11Q211.69-6.11 214.84-6.96L214.84-6.96L214.84-6.96Q217.99-7.80 219.21-8.51L219.21-8.51L219.21-8.51Q220.43-9.21 222.59-10.62L222.59-10.62L226.07-5.36L226.07-5.36Q218.93 0.94 208.21 0.94L208.21 0.94L208.21 0.94Q197.49 0.94 191.81-5.97L191.81-5.97L191.81-5.97Q186.12-12.88 186.12-23.50L186.12-23.50L186.12-23.50Q186.12-34.12 191.81-41.03L191.81-41.03L191.81-41.03Q197.49-47.94 207.32-47.94L207.32-47.94L207.32-47.94Q217.14-47.94 222.22-42.02L222.22-42.02L222.22-42.02Q227.29-36.10 227.29-26.70ZM219.30-28.39L219.30-28.39Q218.74-34.12 215.87-37.51L215.87-37.51L215.87-37.51Q213.00-40.89 207.69-40.89L207.69-40.89L207.69-40.89Q202.38-40.89 199.00-37.46L199.00-37.46L199.00-37.46Q195.61-34.03 194.49-28.39L194.49-28.39L219.30-28.39ZM233.87-2.73L233.87-13.54L240.45-13.54L240.45-7.61L240.45-7.61Q244.02-6.20 249.15-6.20L249.15-6.20L249.15-6.20Q254.27-6.20 256.95-7.85L256.95-7.85L256.95-7.85Q259.63-9.49 259.63-11.94L259.63-11.94L259.63-11.94Q259.63-14.38 257.61-15.93L257.61-15.93L257.61-15.93Q255.59-17.48 248.02-21.53L248.02-21.53L248.02-21.53Q240.45-25.57 237.44-28.34L237.44-28.34L237.44-28.34Q234.44-31.11 234.44-35.63L234.44-35.63L234.44-35.63Q234.44-41.45 239.00-44.70L239.00-44.70L239.00-44.70Q243.55-47.94 251.45-47.94L251.45-47.94L251.45-47.94Q259.35-47.94 266.40-44.09L266.40-44.09L266.40-32.90L259.82-32.90L259.82-39.20L259.82-39.20Q255.68-40.89 251.03-40.89L251.03-40.89L251.03-40.89Q246.37-40.89 244.40-39.15L244.40-39.15L244.40-39.15Q242.43-37.41 242.43-35.34L242.43-35.34L242.43-35.34Q242.43-33.28 243.93-32.05L243.93-32.05L243.93-32.05Q246.47-29.99 253.05-26.70L253.05-26.70L253.05-26.70Q261.41-22.09 264.52-19.27L264.52-19.27L264.52-19.27Q267.62-16.45 267.62-12.03L267.62-12.03L267.62-12.03Q267.62-6.20 262.64-2.68L262.64-2.68L262.64-2.68Q257.65 0.85 248.77 0.85L248.77 0.85L248.77 0.85Q239.89 0.85 233.87-2.73L233.87-2.73ZM288.49-35.25L288.49-6.11L296.66-6.11L296.66 0L273.26 0L273.26-6.11L280.50-6.11L280.50-64.39L273.26-64.39L273.26-70.50L288.49-70.50L288.49-42.39L288.49-42.39Q298.17-47.94 306.06-47.94L306.06-47.94L306.06-47.94Q313.96-47.94 317.01-43.15L317.01-43.15L317.01-43.15Q320.07-38.35 320.07-29.89L320.07-29.89L320.07-5.64L327.78-5.64L327.78-1.69L327.78-1.69Q324.30 0.47 319.74 0.47L319.74 0.47L319.74 0.47Q315.18 0.47 313.63-1.08L313.63-1.08L313.63-1.08Q312.08-2.63 312.08-6.11L312.08-6.11L312.08-29.89L312.08-29.89Q312.08-35.34 310.67-38.12L310.67-38.12L310.67-38.12Q309.26-40.89 304.18-40.89L304.18-40.89L304.18-40.89Q299.11-40.89 288.49-35.25L288.49-35.25ZM339.81-40.89L332.57-40.89L332.57-47L347.80-47L347.80-6.11L355.98-6.11L355.98 0L332.48 0L332.48-6.11L339.81-6.11L339.81-40.89ZM343.57-55.37L343.57-55.37L343.57-55.37Q341.50-55.37 340.19-56.87L340.19-56.87L340.19-56.87Q338.87-58.37 338.87-60.49L338.87-60.49L338.87-60.49Q338.87-62.60 340.33-64.20L340.33-64.20L340.33-64.20Q341.78-65.80 343.85-65.80L343.85-65.80L343.85-65.80Q345.92-65.80 347.24-64.30L347.24-64.30L347.24-64.30Q348.55-62.79 348.55-60.68L348.55-60.68L348.55-60.68Q348.55-58.56 347.09-56.96L347.09-56.96L347.09-56.96Q345.64-55.37 343.57-55.37ZM367.54-5.97L367.54-5.97L367.54-5.97Q361.62-12.88 361.62-23.50L361.62-23.50L361.62-23.50Q361.62-34.12 367.54-41.03L367.54-41.03L367.54-41.03Q373.46-47.94 384.18-47.94L384.18-47.94L384.18-47.94Q394.89-47.94 400.82-41.03L400.82-41.03L400.82-41.03Q406.74-34.12 406.74-23.50L406.74-23.50L406.74-23.50Q406.74-12.88 400.82-5.97L400.82-5.97L400.82-5.97Q394.89 0.94 384.18 0.94L384.18 0.94L384.18 0.94Q373.46 0.94 367.54-5.97ZM373.46-36.00L373.46-36.00L373.46-36.00Q369.61-31.11 369.61-23.50L369.61-23.50L369.61-23.50Q369.61-15.89 373.46-11.00L373.46-11.00L373.46-11.00Q377.32-6.11 384.18-6.11L384.18-6.11L384.18-6.11Q391.04-6.11 394.89-11.00L394.89-11.00L394.89-11.00Q398.75-15.89 398.75-23.50L398.75-23.50L398.75-23.50Q398.75-31.11 394.89-36.00L394.89-36.00L394.89-36.00Q391.04-40.89 384.18-40.89L384.18-40.89L384.18-40.89Q377.32-40.89 373.46-36.00Z" fill="url(#editing-gradient-gradient)"></path></g></g><style>text {
  font-size: 64px;
  font-family: Arial Black;
  dominant-baseline: central;
  text-anchor: middle;
}</style><style class="darkreader darkreader--sync" media="screen"></style></svg>